<?xml version='1.0' encoding='utf-8'?>
<svg xmlns="http://www.w3.org/2000/svg" version="1.1" width="600px" height="976px" viewBox="0 0 600 976"> <g id="layer1"> <g style="fill:rgb(0,0,0); fill-opacity:1.0; stroke-linejoin: miter"> <path d="M216.03778,388.33618L221.24516,402.7994L216.03778,388.33618L216.03563,388.33618Q216.03563,388.33618,216.03563,388.33618 Z M223.78094,391.30966L223.78094,391.30966Q223.78094,391.30966,223.78094,391.30966L223.77872,391.30966L221.24516,402.7994L223.77872,391.30966 Z M257.64343,404.33377L257.64343,404.33377Q257.64343,404.3338,257.64343,404.33383L257.64087,404.33383Q257.64087,404.3338,257.64087,404.33377 Z M342.31732,392.3235L336.3816,406.3572L342.31732,392.3235 Z M236.7957,407.69284Q236.79395,407.69284,236.79219,407.69284Q236.79044,407.69284,236.78868,407.69284 Z M204.4952,408.6373L209.14555,431.74585L204.4952,408.6373 Z M192.87915,437.504Q192.87917,437.504,192.87918,437.50403L192.87915,437.50403Q192.87914,437.504,192.87914,437.504 Z M239.38414,454.45914Q239.38416,454.45914,239.38419,454.45914L239.38176,454.45914Q239.38176,454.45914,239.38174,454.45914 Z M239.44757,454.52322Q239.44757,454.52322,239.44757,454.52322L239.44518,454.52322Q239.44518,454.52322,239.44518,454.52322 Z M174.35716,476.45383Q174.35716,476.45383,174.35718,476.45386L174.35544,476.45386L178.66904,483.61734L174.35542,476.45383 Z M153.42358,493.82416Q153.4236,493.82416,153.4236,493.82416L153.42207,493.82416L169.2813,499.31982L153.42206,493.82416 Z M356.00543,515.7411Q358.3815,515.7411,360.8196,516.0185L360.81955,516.0185Q358.38147,515.7411,356.00543,515.7411Q353.62943,515.7411,351.31546,516.0185L351.31537,516.0185Q353.62936,515.7411,356.00543,515.7411 Z M200.41176,520.82965Q202.9634,520.82965,205.41864,521.3189L205.41849,521.3189Q202.96332,520.82965,200.41176,520.82965Q197.86018,520.82965,195.21225,521.3189L195.2122,521.3189Q197.86017,520.82965,200.41176,520.82965 Z M426.93158,541.93933Q429.06165,541.93933,430.6816,542.4182L430.68152,542.4182Q429.06158,541.93933,426.93158,541.93933Q424.8015,541.93933,422.16135,542.4182Q424.8015,541.93933,426.93158,541.93933 Z M205.93257,569.54895L205.93257,569.54895L205.93257,569.54895L205.93257,569.54895 Z M180.58539,580.4176L180.58539,580.4176Q180.58539,580.4176,180.58539,580.4176L180.58539,580.4176Q180.58539,580.4176,180.58539,580.4176L180.58359,580.4176L162.42181,593.6627L162.42181,593.6627L180.58359,580.4176 Z M296.45667,616.51385Q296.4567,616.51385,296.4567,616.51385L296.4537,616.51385Q296.4537,616.51385,296.4537,616.51385 Z M295.8614,634.42255Q295.86273,634.42255,295.86407,634.42255L295.8587,634.42255Q295.86005,634.42255,295.8614,634.42255 Z M276.08798,643.23016Q276.08313,643.2321,276.07825,643.2341L276.09323,643.23804L276.09323,643.23804Q276.09198,643.23413,276.09073,643.23016 Z M469.6644,812.37646Q470.8054,812.37646,472.089,812.57245L472.08893,812.57245Q470.80533,812.37646,469.6644,812.37646Q468.52344,812.37646,467.52512,812.57245Q468.52344,812.37646,469.6644,812.37646 Z M431.4312,822.27264L431.4312,822.27264Q431.41528,822.27264,431.39935,822.27264Q431.38342,822.27264,431.3675,822.27264 Z M510.04706,847.7335L510.04706,847.7335Q510.04047,847.7335,510.03384,847.7335Q510.02722,847.7335,510.02063,847.7335 Z M380.9025,850.495Q380.9303,850.495,380.9568,850.4962L380.9562,850.4962Q380.93002,850.495,380.9025,850.495Q380.87497,850.495,380.84613,850.4962Q380.87497,850.495,380.9025,850.495 Z M459.11133,850.8445Q459.11133,850.8445,459.11133,850.8445L459.10675,850.8445Q459.10675,850.8445,459.10675,850.8445L459.10675,850.8445Q459.10675,850.8445,459.10675,850.8445 Z M429.89166,884.70715L433.76862,886.3756L429.89166,884.70715 Z M427.37332,891.8447Q427.37305,891.8447,427.37274,891.8447Q427.37247,891.8447,427.3722,891.8447 Z M377.668,904.00635Q377.66193,904.00635,377.65582,904.00635Q377.64975,904.00635,377.64368,904.00635 Z M224.60301,382.39532Q224.3057,382.39532,224.04114,382.88895L221.08217,399.00162Q218.26631,388.90402,214.52998,382.95175L214.1413,382.9394L214.13916,382.9394Q220.39798,421.58783,221.90793,421.92044Q226.44882,435.05225,236.79457,448.28906Q222.32715,447.3761,212.89682,436.8141Q210.97708,434.0443,210.00082,430.431Q206.6451,406.53427,202.91174,402.26324Q202.89684,402.2629,202.88222,402.2629Q202.00024,402.2629,202.19919,403.43698Q204.99037,414.83167,204.20963,422.73868Q195.98967,408.32443,188.88144,405.2916L188.87956,405.2916Q196.194,414.73856,205.34558,434.80936Q208.14561,439.17477,213.70561,444.47516Q213.46059,444.49286,213.19759,444.49286Q210.11467,444.49286,204.56062,442.06042Q189.6997,435.07684,185.93013,430.84708Q183.94302,430.886,185.23827,431.8624Q194.37233,441.64642,202.87175,445.4324Q212.00064,450.16623,234.76814,453.0102Q236.73044,453.5566,238.72057,455.3689L238.71819,455.3689Q238.72432,455.39313,238.73111,455.418Q245.15231,467.11444,246.10211,471.28903Q247.1336,474.74435,246.28296,478.14618L231.67606,501.9787Q228.15195,506.911,223.97128,510.23807Q217.21071,516.0185,209.41618,516.0185Q202.11015,516.0185,193.89572,510.93988Q187.82307,506.0425,185.8535,502.19327Q183.85277,487.50867,179.59705,481.73605Q175.57632,474.9553,170.3338,471.04205Q169.39099,471.09512,169.8622,472.1123Q175.7905,480.41846,176.55634,482.51398Q169.51482,479.06873,164.43147,479.06873Q162.15746,479.06873,160.27531,479.75818Q180.47096,483.11584,180.69212,500.8401Q160.74983,492.87405,147.17502,491.67157Q145.76442,492.76364,146.96777,492.88892L165.38538,499.33487Q150.12009,501.12717,140.8794,501.12717Q136.80296,501.12717,133.89893,500.77838L133.8976,500.77838Q141.20082,503.96106,148.73207,504.69437Q161.65051,503.9391,168.00977,503.9391Q174.09929,503.9391,174.17426,504.63165Q180.12941,505.80978,189.34805,513.834Q179.81265,515.14703,135.66016,516.8175Q135.36255,517.7694,136.26013,517.78973L159.51804,519.8327L142.52928,526.9783Q141.25035,527.1776,142.71364,528.2137Q161.52165,522.8178,184.2544,522.5897L184.25624,522.5897Q176.3449,530.03406,168.45055,532.3762Q164.32304,534.19977,141.43822,534.89325L136.32092,536.231L136.34464,536.3748L162.6192,538.0998Q159.8458,540.3978,142.02586,548.5903Q140.73991,548.9609,142.34473,549.7896Q160.19449,546.2545,175.73006,535.1231L175.7318,535.1231L165.25836,559.5877Q164.90877,560.62476,165.7938,560.62476Q165.80865,560.62476,165.82385,560.62445L172.12476,551.594Q180.85672,534.7929,182.80222,532.7379Q187.92407,525.8661,193.34924,523.2566Q197.0112,521.89545,200.70482,521.89545Q211.54718,521.89545,222.66223,533.62415Q225.90634,538.2361,223.54272,545.8284Q222.45723,548.4943,221.71136,549.2499Q215.84616,553.8084,211.80986,561.44525Q210.27048,563.03284,206.45677,564.8053L178.72058,576.6659Q174.48062,579.16034,156.46275,598.23944Q156.60648,598.9247,157.02226,598.9247Q157.19464,598.9247,157.4138,598.8069L179.5728,582.5629L179.57458,582.5629Q177.9957,590.9041,170.16885,603.6623Q170.39478,604.23456,170.75241,604.23456Q170.95184,604.23456,171.19223,604.0566Q176.17723,599.3447,178.69267,595.5468Q179.97368,594.2411,185.13715,581.8691Q186.23091,579.8138,187.73097,578.40643Q189.10489,576.0127,204.48894,571.0799L204.49098,571.0799L201.1442,580.3652L182.06784,623.78424Q182.25575,624.42804,182.64146,624.42804Q182.8287,624.42804,183.06256,624.2763L194.22772,608.64496L196.23857,632.56744Q196.11124,633.6601,196.91573,633.7481L198.2439,609.4803Q198.60365,604.2148,199.74826,599.2166Q201.08969,591.6449,210.75343,577.79254L212.99745,595.9226Q206.27713,605.6181,205.39027,622.8775Q205.68921,623.15674,205.93631,623.15674Q206.25502,623.15674,206.48752,622.6922Q210.71875,606.8701,215.62648,600.6109L219.16595,620.1334Q219.435,620.44946,219.68605,620.44946Q219.99962,620.44946,220.28513,619.9565L219.08525,587.4384L219.08745,587.4384Q224.33124,590.8061,226.87646,594.70544Q229.18686,597.7813,232.67825,608.02313Q232.93835,608.44037,233.26778,608.44037Q233.49925,608.44037,233.76494,608.2344Q233.49588,600.9792,229.65771,593.0267Q227.67625,588.86676,219.77267,582.0792L217.8034,578.8768Q214.6221,564.83527,220.33212,561.94507Q226.11516,557.74896,237.21655,557.74896Q241.70111,557.74896,247.05356,558.4337Q268.9496,561.2238,277.8094,569.2128Q290.30716,578.8281,287.09375,592.3023Q286.43488,594.0896,284.07477,596.29254Q265.00693,610.55457,259.96243,616.8045Q254.5546,622.5445,250.24352,634.15717Q250.46315,634.74756,250.82571,634.74756Q251.02614,634.74756,251.27023,634.56714Q259.72882,621.49615,265.1665,616.9595L289.44412,599.16254L289.447,599.16254Q291.46094,612.82684,288.73633,616.93787L274.85706,631.75616Q271.20282,636.18976,266.4346,644.0157Q266.62057,644.6602,267.00818,644.6602Q267.19165,644.6602,267.42035,644.51575L278.93408,632.2899L278.93408,632.2899L276.0254,643.01337Q276.05783,643.12665,276.09042,643.22925L276.09042,643.22925Q276.4107,643.1019,276.50348,643.10095L276.50626,643.10095Q276.6204,643.1022,276.36322,643.30963L276.09622,643.23883L276.09348,643.23883Q276.4056,644.2163,276.7319,644.2163Q276.93552,644.2163,277.14468,643.83563Q284.71265,623.7992,292.94916,622.14703L293.0772,631.8321Q288.81308,643.0543,288.7766,647.209Q288.46072,652.42224,291.27698,657.5326L291.87628,657.14545Q291.61722,646.3848,292.59238,643.15216Q293.7456,638.82794,295.91504,636.46515L304.94934,653.8362Q305.64334,654.3876,305.96198,654.3876Q306.3398,654.3876,306.1898,653.61224Q296.4411,634.8277,297.47678,618.13654L297.47974,618.13654Q302.95197,621.4253,305.87076,624.48975Q308.9037,627.3256,314.05872,637.0436Q314.30557,637.3132,314.5358,637.3132Q314.86084,637.3132,315.1527,636.7758Q314.25372,629.28436,311.26923,625.31433Q308.1997,620.45917,300.2872,614.9018Q299.30762,613.8717,298.7197,612.3785Q296.76254,608.21497,296.3861,590.6104L296.38907,590.6104L300.86447,594.78955Q316.1959,604.1941,317.84088,607.0454L330.6052,630.9986Q331.5968,630.79865,331.06497,629.7857L323.76862,609.66315L337.77112,618.8222L337.41644,619.2738Q337.58755,619.4336,337.75522,619.4336Q338.0986,619.4336,338.4276,618.76355L304.47894,591.2066Q297.32062,584.68353,295.71304,580.0626Q296.078,566.74475,298.53354,564.4566L316.58075,547.4446L326.65167,531.5047Q328.7458,528.40204,331.2575,526.0802Q342.51886,516.96606,355.86755,516.96606Q358.60733,516.96606,361.43503,517.35004Q361.57977,523.4334,364.5441,524.8405L387.2435,530.4348Q392.2338,531.89685,403.62546,542.8334Q404.67047,544.01196,411.12946,544.01196Q411.6296,544.01196,412.1622,544.0049L414.1219,545.8759Q410.62845,548.5524,410.7367,551.90515Q410.46924,554.5511,415.21463,563.0895Q415.66946,564.15686,416.0637,567.2099L415.9061,594.72577Q415.31985,598.2743,423.04062,601.8858L422.4443,604.3498Q416.69196,605.42346,415.36697,608.2027L410.92712,621.50366L403.32877,632.4969L401.92358,641.9377Q398.8347,648.317,398.55347,653.0076Q398.18036,657.8284,403.58124,658.72864L402.29034,661.66174Q400.7724,660.9359,399.2618,660.9359Q391.088,660.9359,383.12903,682.1865Q375.5715,703.4268,374.83545,713.1617Q374.66486,716.2109,375.64417,718.2194Q377.16476,721.0891,381.65356,723.3104L381.25806,725.8851Q372.389,727.95416,372.7052,732.6849L373.24542,743.26746Q372.00427,756.2978,372.54205,756.45795Q377.45245,767.1088,379.00665,781.705Q380.0077,785.1003,382.20636,786.46246Q384.68622,788.1337,391.0164,788.2596Q391.4406,788.6705,391.71387,789.46686Q402.0616,812.43146,398.4437,825.6697Q396.65848,832.8377,391.02917,837.5302Q384.63165,844.5468,355.7663,859.77875Q352.4423,861.4808,341.54816,879.34406L339.11615,881.7897Q332.7818,883.80676,333.2167,885.1747Q336.71072,892.5468,341.03006,892.5468Q341.9868,892.5468,342.984,892.1851Q340.99405,885.2488,356.71802,865.3146Q360.9494,859.3192,379.4164,852.67017L379.4202,852.67017Q370.9226,868.1004,371.1549,877.48096Q370.8006,887.557,374.60114,899.54913Q372.91425,901.6347,373.1242,903.2216Q374.0389,905.12396,376.88184,905.20526Q383.09854,905.0727,385.08142,899.78107Q385.17514,897.565,380.42188,897.2725Q378.38824,894.0278,377.41803,889.90155Q375.36072,877.79144,377.53027,868.1113Q383.4809,850.6276,393.77225,842.1255L393.77618,842.1255Q393.4278,853.3615,398.0704,860.517Q400.29846,864.119,404.1655,867.4196Q418.65604,876.6696,422.18338,880.7824L424.11243,883.8675Q424.9205,892.7333,425.97726,892.7333Q426.02173,892.7333,426.06662,892.7176Q426.64297,892.9654,427.27487,892.9654Q430.3994,892.9654,434.88266,886.90717Q435.90076,885.2376,431.1043,883.92737L431.1,883.92737Q431.05643,883.8429,430.99936,883.75073Q428.6485,883.2907,427.86282,882.1396Q420.8531,872.94745,419.5377,872.09143Q400.9309,860.70886,400.5596,856.30615Q398.54874,845.3824,399.30908,839.71173Q398.6908,837.5723,405.2936,825.79584Q406.12885,823.6082,406.06137,815.09064L406.06543,815.09064Q410.75793,821.633,417.65878,823.4952Q423.6095,826.5738,445.84967,826.5738Q446.50705,826.5738,447.17868,826.5711Q451.4379,827.4755,453.81317,830.6701Q457.9533,837.02216,457.671,843.8603L452.27267,859.58795Q451.37744,864.53467,453.65262,872.9116Q451.34552,876.343,451.66055,877.7338Q452.18546,880.27496,455.32416,880.27496Q455.49014,880.27496,455.66342,880.2679Q460.94955,879.97437,463.6842,876.15607Q462.83743,873.1066,457.9189,872.0358Q457.08746,871.4196,456.45322,867.703Q455.17526,859.77075,459.6944,852.48663Q461.94223,858.02094,479.16998,864.9892L483.33032,871.18353Q487.51083,870.54694,488.7095,862.4324Q488.51288,860.3315,486.77097,860.2294Q483.1698,861.2912,480.6473,861.2912Q478.29077,861.2912,476.8756,860.3645Q464.1323,854.43243,463.6594,853.03033Q461.92572,850.7353,461.82904,849.08685Q461.4477,833.6241,460.07266,832.67596Q458.92346,830.2487,457.12955,828.6665L448.82727,822.2686L467.93835,813.72577Q468.6917,813.6504,469.4788,813.6504Q475.63934,813.6504,483.86578,818.26935Q492.0898,822.08923,499.06375,837.9776Q505.1379,849.7703,499.88092,852.97675Q500.868,854.30096,505.0845,854.30096Q505.0965,854.30096,505.10855,854.30096Q512.7521,853.2117,512.77747,846.4565L512.77234,846.4565Q511.74857,846.5939,510.91293,846.5939Q508.38412,846.5939,507.57776,845.33594Q501.06525,825.1522,484.07227,812.8354L484.0771,812.8354Q523.9619,820.6723,523.55615,826.4115Q527.1454,825.7753,527.82214,818.668Q528.1896,815.4694,524.9757,814.09064L516.6428,817.375Q502.70074,811.31805,473.5489,808.24023Q469.48898,808.24493,465.57327,809.6227Q447.1744,818.5937,441.05292,819.7741Q436.0463,821.0668,431.438,821.0668Q427.76083,821.0668,424.33728,820.2437Q409.7497,817.9307,398.63278,785.7712Q405.32532,783.7928,404.59888,778.70685Q395.91663,749.5817,397.45624,732.13544Q395.90054,726.1546,390.61688,726.1546Q390.613,726.1546,390.60913,726.1546L390.72772,724.1995Q398.5495,723.8302,398.98804,721.21124L401.5052,706.0138L408.843,693.4481Q409.30017,692.6248,410.12567,683.7421Q413.39035,676.778,413.72632,671.2263Q413.54022,668.8282,413.1313,668.5107Q407.81747,664.7799,409.27362,664.0513L410.59534,661.8362Q415.70642,662.9959,417.50977,662.9959Q418.51535,662.9959,418.49243,662.6353Q420.47937,661.45166,421.62286,659.32806Q426.92932,649.88007,436.1463,621.0741Q437.64246,614.56354,436.59497,611.7674Q435.98788,608.46045,431.489,605.95416L431.67108,603.0219Q439.0452,602.11993,439.89374,600.27625L442.9501,579.6777Q442.93298,574.9533,442.41318,572.68195L440.02887,568.2421Q437.91476,547.8573,436.40405,546.23584Q434.09802,540.7513,427.33597,540.7513Q425.27545,540.7513,422.80118,541.26056L420.97668,538.3983Q425.6695,533.2537,422.61804,529.3016Q407.37842,510.0465,402.04498,509.48712Q386.2389,501.94272,376.3282,500.59644Q374.83398,500.472,373.49133,500.472Q364.45807,500.472,362.28638,506.10507Q348.20142,505.22098,339.65186,502.59335Q317.89722,495.1537,309.18457,481.32684Q303.53766,472.22116,313.26337,455.08987Q314.61703,452.09445,340.0821,442.9996L368.1911,421.78952Q368.11127,420.6286,367.5668,420.6286Q367.1725,420.6286,366.5345,421.23746L345.10468,435.2663Q349.2873,423.50467,357.18915,415.21262Q356.912,414.6008,356.55225,414.6008Q356.30402,414.6008,356.0165,414.89203Q349.98602,419.2755,346.9759,423.33786L337.94406,438.96887L316.622,447.64337Q321.03503,436.45416,327.60083,429.72467Q334.1392,422.21878,346.6253,415.59763L351.617,410.51886Q357.33044,403.9444,358.49384,394.25348Q358.1847,393.99173,357.93402,393.99173Q357.53992,393.99173,357.2904,394.6388Q352.06406,405.64215,347.84857,409.82837Q344.1355,413.77002,336.25,416.3604Q342.4674,404.1129,344.58167,385.731Q344.2882,385.529,344.05847,385.529Q343.62112,385.529,343.4148,386.2612L336.37775,404.11438Q335.07678,402.61197,334.66763,399.41806Q334.14612,396.8031,334.20404,385.6781Q334.16852,384.78503,333.67224,384.78503Q333.4704,384.78503,333.19232,384.93277Q332.09296,388.98645,331.56763,395.24252Q331.905,414.60223,331.14948,415.86917L331.14948,415.86917Q331.13342,415.8616,331.11084,415.86133L331.1075,415.86133Q331.04926,415.862,330.94916,415.90936Q330.99518,415.95792,331.0383,415.95792Q331.09613,415.95792,331.1487,415.87045L331.152,415.87045Q331.98572,416.30994,313.8706,437.90216L310.99426,421.0148Q318.1004,396.9048,318.42908,392.68762Q318.28275,392.1733,317.98926,392.1733Q317.56042,392.1733,316.81738,393.27158L308.99072,413.56436L305.5039,391.60123Q305.18185,391.26434,304.93152,391.26434Q304.57602,391.26434,304.3651,391.9437L305.38614,425.5124Q302.98874,424.35352,300.33472,420.87457L289.57886,404.05875Q289.0259,402.99692,288.4738,402.99692Q288.22928,402.99692,287.9849,403.2052Q298.5548,428.91486,307.2848,433.14972Q307.93652,436.7175,307.39005,444.6853Q303.46408,461.20886,296.49707,471.33997Q294.50348,474.60547,285.7377,474.60547Q282.97208,474.60547,279.53238,474.28043Q256.49008,473.92935,249.21896,454.0922Q247.94794,450.77307,249.40685,445.73016Q259.51944,425.18704,258.54593,424.18536Q259.69952,416.32147,258.30844,396.62238Q258.18716,396.06293,257.91855,396.06293Q257.5516,396.06293,256.90976,397.107L256.1273,407.49695L251.26598,396.90558Q251.02676,396.35944,250.69777,396.35944Q250.40823,396.35944,250.04915,396.78247Q256.67145,416.78394,255.37912,418.76068L243.14294,444.37994Q232.58853,430.26877,233.71793,428.08624Q241.18411,411.12766,238.66562,394.6071Q238.54822,393.81995,238.11224,393.81995Q237.88646,393.81995,237.57523,394.03107L236.31525,405.6131Q232.92873,400.189,232.04126,400.189Q231.77905,400.189,231.735,400.6625Q235.46667,408.6073,234.89105,412.2358Q233.15302,419.97244,229.24852,424.60046Q223.0026,419.70697,222.7992,412.95807Q222.09358,409.8635,225.03932,395.39383L225.22226,382.87683Q224.89665,382.39532,224.60301,382.39532 Z"/> </g> </g> </svg>