<?xml version="1.0" standalone="no"?>
<!DOCTYPE svg PUBLIC "-//W3C//DTD SVG 20010904//EN"
 "http://www.w3.org/TR/2001/REC-SVG-20010904/DTD/svg10.dtd">
<svg version="1.0" xmlns="http://www.w3.org/2000/svg"
 width="1280.000000pt" height="640.000000pt" viewBox="0 0 1280.000000 640.000000"
 preserveAspectRatio="xMidYMid meet">

<g transform="translate(0.000000,640.000000) scale(0.100000,-0.100000)"
fill="#000000" stroke="none">
<path d="M11570 4930 c-11 -11 -22 -30 -26 -44 -3 -14 -26 -37 -54 -55 -101
-65 -143 -170 -165 -415 -30 -320 -44 -359 -210 -566 -208 -260 -242 -329
-230 -478 9 -130 10 -172 1 -224 l-7 -48 -378 0 -378 0 4 24 c3 16 -2 31 -16
45 -21 21 -28 21 -451 21 -423 0 -430 0 -451 -21 -14 -14 -19 -29 -16 -45 l4
-24 -153 0 -154 0 0 28 c0 63 9 62 -478 62 -429 0 -443 -1 -462 -20 -11 -11
-20 -31 -20 -45 0 -25 -1 -25 -85 -25 l-85 0 0 28 c0 63 4 62 -436 62 -442 0
-444 0 -444 -61 l0 -29 -64 0 c-61 0 -63 1 -59 24 3 16 -2 31 -16 45 -20 20
-29 21 -340 21 l-320 0 -20 -27 c-13 -15 -19 -34 -16 -45 6 -15 1 -18 -34 -18
l-41 0 0 163 0 164 58 16 c107 30 209 116 250 210 7 15 12 56 12 91 0 180
-182 316 -425 316 -188 0 -326 -68 -403 -199 -37 -64 -38 -164 -2 -234 43 -86
144 -160 254 -188 l46 -11 -2 -167 -3 -166 -27 -3 c-26 -3 -28 -1 -28 31 0 69
11 67 -453 67 -411 0 -417 0 -438 -21 -16 -16 -20 -29 -15 -50 l6 -29 -140 0
-140 0 0 30 c0 17 -9 39 -20 50 -19 19 -33 20 -355 20 -325 0 -336 -1 -356
-21 -13 -13 -19 -30 -17 -47 l3 -27 -182 -3 -183 -2 0 33 c0 69 16 67 -496 67
-514 0 -504 1 -504 -66 l0 -34 -161 0 c-160 0 -161 0 -156 22 6 22 -8 57 -27
70 -6 4 -183 8 -394 8 -375 0 -382 0 -403 -21 -16 -16 -20 -29 -15 -50 l6 -29
-275 0 -275 0 1 78 c1 42 4 106 8 142 5 55 7 61 14 36 4 -15 10 -26 13 -24 13
14 -44 115 -100 176 -30 32 -94 72 -116 72 -23 0 -8 -31 23 -46 105 -53 157
-169 123 -274 -9 -28 -14 -55 -12 -59 7 -10 -33 -131 -42 -131 -4 0 -61 31
-126 68 -102 58 -122 73 -132 103 -24 67 -13 135 34 197 19 26 22 36 12 45 -9
9 -17 5 -36 -18 -41 -51 -57 -108 -52 -179 l6 -64 -32 4 c-45 7 -120 -18 -124
-40 -3 -16 0 -18 19 -12 49 16 134 18 165 4 30 -13 177 -186 174 -205 -2 -14
-214 -92 -224 -83 -5 5 -18 5 -31 0 -32 -12 -65 -2 -102 32 -28 27 -53 31 -53
9 0 -18 55 -62 90 -72 l37 -11 -32 -48 c-30 -45 -53 -115 -41 -127 14 -14 34
10 40 47 5 30 18 52 50 85 50 49 59 52 218 58 l108 5 6 -34 c19 -101 -28 -174
-111 -174 -35 0 -52 6 -78 29 -24 21 -37 27 -48 20 -11 -7 -7 -16 23 -44 46
-43 95 -53 150 -31 23 9 43 14 45 12 7 -7 -25 -75 -58 -122 -38 -56 -26 -83
15 -33 42 50 73 118 90 200 8 41 21 92 29 114 l14 40 292 3 c282 2 291 2 291
-17 0 -11 12 -29 26 -40 26 -20 37 -21 419 -21 l392 0 21 23 c12 13 22 31 22
40 0 15 16 17 144 17 l143 0 -4 -24 c-3 -16 2 -31 16 -45 21 -21 27 -21 484
-21 437 0 465 1 480 18 10 10 17 31 17 45 l0 27 184 0 c176 0 184 -1 179 -19
-3 -11 4 -28 16 -40 21 -21 29 -21 384 -21 340 0 365 1 380 18 10 10 17 28 17
40 0 21 4 22 110 22 110 0 110 0 110 -24 0 -55 7 -56 461 -56 390 0 417 1 432
18 10 10 17 28 17 40 0 22 2 22 174 22 l174 0 0 -27 c0 -52 9 -53 354 -53 309
0 319 1 339 21 12 12 19 29 16 40 -5 17 1 19 59 19 60 0 64 -1 64 -23 0 -13 8
-31 18 -40 17 -15 61 -17 424 -17 380 0 406 1 421 18 10 10 17 28 17 40 0 21
4 22 110 22 109 0 110 0 110 -23 0 -13 8 -31 18 -40 17 -15 62 -17 436 -17
269 0 424 4 437 10 12 7 19 21 19 40 l0 30 170 0 170 0 0 -24 c0 -57 -5 -56
446 -56 407 0 414 0 435 21 12 12 19 29 16 40 -5 18 6 19 374 19 208 0 379 -2
379 -5 0 -27 35 -233 47 -275 67 -238 244 -451 472 -565 125 -62 197 -76 456
-85 337 -12 442 -46 660 -209 127 -95 165 -133 165 -164 0 -52 39 -94 75 -81
22 9 45 57 45 94 0 74 -56 115 -101 74 -17 -15 -22 -13 -76 33 -114 98 -241
181 -333 219 -54 22 -55 22 -25 29 116 27 174 51 257 111 l47 34 50 -31 c63
-40 95 -37 99 9 6 64 -88 162 -156 162 -40 0 -51 -33 -28 -78 16 -30 15 -31
-20 -60 -57 -47 -126 -81 -211 -103 -71 -18 -98 -19 -298 -14 -294 7 -355 13
-455 42 -271 78 -492 292 -581 563 l-32 99 23 85 c13 50 27 83 34 81 6 -2 58
-11 116 -20 125 -20 192 -51 275 -127 103 -94 168 -216 184 -348 12 -96 4
-160 -21 -160 -37 0 -78 -29 -78 -55 0 -76 218 -84 247 -9 9 23 -26 54 -69 60
l-38 7 0 77 c0 140 -54 293 -139 392 -26 31 -31 40 -16 34 84 -32 172 -48 286
-53 151 -7 232 8 384 70 82 33 113 41 168 41 68 1 69 1 103 -39 75 -88 72 -87
94 -75 29 15 43 57 37 107 -5 51 -21 73 -53 73 -20 0 -34 -14 -59 -58 -1 -1
-15 4 -31 13 -62 32 -145 19 -319 -48 -114 -45 -221 -62 -333 -54 -165 12
-277 53 -467 174 -60 38 -138 87 -172 109 -34 21 -62 42 -63 45 0 3 73 54 162
114 160 106 162 107 209 102 53 -7 97 -27 198 -92 109 -70 162 -89 261 -89 79
0 127 11 212 48 12 6 20 -1 33 -27 10 -21 29 -40 46 -48 26 -10 34 -9 57 8 84
63 53 240 -40 231 -36 -3 -78 -54 -78 -94 0 -46 -164 -101 -265 -88 -60 7
-116 31 -207 86 -69 41 -83 58 -50 58 31 0 99 56 127 105 56 94 74 181 125
600 17 138 37 276 45 307 28 113 81 181 149 193 27 6 38 2 60 -20 21 -21 29
-24 46 -15 29 15 40 43 40 98 0 51 -27 102 -55 102 -23 0 -55 -51 -55 -86 0
-30 -4 -34 -37 -43 -88 -24 -146 -95 -178 -217 -8 -32 -33 -203 -56 -379 -22
-176 -47 -349 -56 -385 -43 -178 -139 -259 -274 -231 -81 16 -111 14 -161 -13
-27 -15 -91 -31 -168 -44 -68 -12 -125 -20 -125 -19 -1 1 -21 54 -45 117 -38
103 -42 121 -37 176 11 117 52 192 219 400 58 73 113 145 123 161 16 28 19 29
108 31 79 2 98 0 137 -20 42 -22 45 -26 56 -82 14 -70 41 -103 72 -87 64 34
50 226 -17 226 -13 0 -29 -9 -35 -20 -6 -11 -12 -22 -13 -24 -1 -2 -24 5 -50
17 -64 27 -132 36 -178 23 -22 -6 -40 -9 -42 -8 -1 2 6 25 16 53 19 50 32 140
52 363 6 68 18 150 28 181 22 71 70 142 115 169 39 25 46 26 46 8 0 -8 8 -21
18 -30 63 -57 131 47 87 132 -22 44 -54 52 -85 21z m61 -53 c9 -33 -7 -87 -26
-87 -15 0 -36 54 -30 75 3 8 7 22 10 31 8 24 38 12 46 -19z m495 -414 c7 -38
-5 -88 -21 -88 -18 0 -30 72 -17 100 16 35 30 31 38 -12z m-6154 -444 c168
-36 288 -152 288 -280 0 -120 -131 -247 -282 -274 l-38 -7 0 -199 0 -199 2485
0 2484 0 7 60 c4 33 10 62 13 65 4 2 16 -21 26 -50 15 -46 21 -54 39 -50 65
14 190 35 193 32 2 -2 -46 -37 -107 -77 -60 -40 -110 -75 -110 -79 0 -3 49
-37 109 -76 61 -38 108 -71 106 -73 -2 -2 -48 3 -103 12 -134 22 -129 23 -137
-24 -7 -43 -25 -55 -25 -16 0 13 -3 38 -6 55 l-6 31 -4402 5 c-2420 2 -4583 7
-4805 10 -270 4 -408 2 -415 -5 -6 -6 -117 -10 -303 -10 l-293 0 0 26 c0 35
-20 27 -42 -17 -15 -28 -18 -30 -18 -11 0 21 -4 22 -82 22 l-83 1 63 26 c34
14 62 28 62 32 0 3 -25 36 -55 74 -30 37 -55 69 -55 71 0 3 36 -16 81 -41 44
-25 82 -43 84 -41 2 2 8 14 12 26 l8 22 2563 0 2562 0 0 198 0 199 -55 12
c-251 56 -349 286 -190 446 93 93 273 137 427 104z m5660 -50 c4 -19 3 -51 -2
-72 -15 -69 -30 -64 -38 12 -8 91 23 139 40 60z m572 -811 c9 -12 16 -43 16
-68 0 -87 -57 -122 -86 -53 -18 41 -12 98 13 126 21 23 39 22 57 -5z m-10136
-22 c9 -44 -11 -46 -391 -46 -228 0 -365 4 -378 10 -19 11 -26 40 -12 53 4 4
180 6 392 5 372 -3 386 -4 389 -22z m1318 2 c14 -47 3 -48 -477 -48 -394 0
-449 2 -463 16 -9 8 -16 19 -16 23 0 29 30 31 486 31 l463 0 7 -22z m1102 -9
c2 -20 -2 -28 -20 -33 -30 -8 -616 -8 -645 0 -22 6 -32 42 -16 57 4 4 158 6
342 5 l336 -3 3 -26z m1190 10 c2 -9 -4 -24 -13 -33 -15 -14 -61 -16 -411 -16
-253 0 -402 4 -415 10 -19 11 -26 40 -12 53 3 4 196 6 427 5 380 -3 421 -5
424 -19z m1047 -9 l0 -25 -323 -3 c-280 -2 -323 0 -328 13 -4 8 -4 22 0 30 5
13 48 15 328 13 l323 -3 0 -25z m1010 10 c3 -11 3 -24 0 -30 -4 -6 -151 -10
-415 -10 -367 0 -408 2 -414 16 -16 43 -4 44 420 44 393 0 403 0 409 -20z
m1130 -10 l0 -25 -452 -3 -453 -2 0 23 c0 13 3 27 7 30 3 4 207 6 452 5 l446
-3 0 -25z m1230 0 l0 -25 -433 -3 c-378 -2 -433 0 -438 13 -4 8 -4 22 0 30 5
13 60 15 438 13 l433 -3 0 -25z m-7992 -296 c3 -4 2 -15 -4 -25 -9 -18 -27
-19 -412 -17 l-402 3 -3 23 -3 22 409 0 c225 0 412 -3 415 -6z m1277 -9 c7 -8
10 -22 6 -30 -5 -13 -65 -15 -471 -15 -405 0 -466 2 -471 15 -4 8 -4 22 0 30
8 23 917 23 936 0z m1163 3 c12 -37 4 -38 -368 -38 -243 0 -366 3 -370 10 -4
6 -4 17 -1 25 5 13 60 15 370 15 282 0 365 -3 369 -12z m1130 -1 c14 -36 -1
-37 -429 -35 l-419 3 -3 23 -3 22 424 0 c346 0 426 -2 430 -13z m1052 -12 c0
-20 -8 -20 -319 -23 -192 -1 -324 2 -329 7 -5 5 -7 17 -4 25 6 15 43 16 329
14 315 -3 323 -3 323 -23z m1008 13 c13 -37 6 -38 -413 -38 -419 0 -426 1
-412 38 3 9 95 12 412 12 318 0 409 -3 413 -12z m1132 -13 c0 -20 -8 -20 -424
-23 -257 -1 -429 2 -434 7 -5 5 -7 17 -4 25 6 15 52 16 434 14 420 -3 428 -3
428 -23z m1230 0 c0 -20 -8 -20 -414 -23 -251 -1 -419 2 -424 7 -5 5 -7 17 -4
25 6 15 51 16 424 14 410 -3 418 -3 418 -23z m2400 -125 c0 -46 -20 -74 -35
-50 -14 21 -12 84 2 98 18 18 33 -3 33 -48z m117 -555 c34 -23 78 -81 78 -103
0 -36 -120 60 -132 106 -8 29 8 28 54 -3z m-940 -33 c19 -19 1 -26 -70 -30
-49 -3 -72 1 -87 12 -20 14 -20 15 5 25 31 14 136 9 152 -7z m1090 -529 c9
-33 -4 -83 -21 -83 -26 0 -39 66 -20 101 14 27 31 19 41 -18z"/>
<path d="M5770 3808 c-25 -17 -36 -32 -37 -53 -6 -64 57 -96 162 -84 96 12
133 44 114 96 -14 37 -55 56 -132 61 -64 3 -76 1 -107 -20z"/>
<path d="M792 2978 c-1 -20 -5 -45 -8 -55 -5 -14 -4 -15 5 -7 7 7 11 29 8 55
-3 42 -4 42 -5 7z"/>
<path d="M415 3664 c75 -20 88 -23 79 -14 -5 5 -29 11 -54 14 -25 3 -36 3 -25
0z"/>
<path d="M252 3624 c-24 -14 -41 -28 -39 -30 4 -4 71 36 86 52 10 10 -7 2 -47
-22z"/>
<path d="M590 3582 c0 -4 17 -24 37 -43 l37 -34 -33 43 c-33 42 -41 49 -41 34z"/>
<path d="M112 3471 c-31 -54 -27 -65 4 -13 14 24 24 45 22 48 -3 2 -14 -14
-26 -35z"/>
<path d="M33 3274 c-6 -27 -10 -51 -8 -52 6 -6 27 78 23 90 -2 6 -9 -11 -15
-38z"/>
<path d="M771 3204 c0 -11 3 -14 6 -6 3 7 2 16 -1 19 -3 4 -6 -2 -5 -13z"/>
<path d="M782 3150 c0 -19 2 -27 5 -17 2 9 2 25 0 35 -3 9 -5 1 -5 -18z"/>
<path d="M3 3065 c0 -27 2 -38 4 -22 2 15 2 37 0 50 -2 12 -4 0 -4 -28z"/>
<path d="M10 2869 c0 -19 4 -41 9 -48 6 -10 8 1 4 30 -7 55 -13 63 -13 18z"/>
<path d="M766 2792 c-2 -4 -7 -25 -10 -47 -7 -45 -2 -38 13 18 9 35 8 46 -3
29z"/>
<path d="M51 2698 c-1 -12 31 -89 35 -85 3 2 -4 24 -15 48 -11 24 -20 41 -20
37z"/>
<path d="M682 2568 c-12 -23 -21 -43 -19 -45 2 -1 14 15 26 38 13 22 21 42 19
44 -2 2 -13 -15 -26 -37z"/>
<path d="M140 2514 c0 -6 17 -26 37 -45 l38 -34 -30 35 c-16 19 -33 39 -37 45
-5 5 -8 5 -8 -1z"/>
<path d="M541 2410 c-24 -17 -40 -30 -35 -30 11 0 84 48 84 55 0 8 -2 6 -49
-25z"/>
<path d="M300 2376 c3 -2 25 -9 49 -15 24 -5 39 -6 35 -1 -10 8 -92 25 -84 16z"/>
</g>
</svg>
